<svg xmlns="http://www.w3.org/2000/svg" viewBox="0 0 1024 1024">
    <defs>
        <radialGradient id="a" cx=".5" cy=".5" r="1">
            <stop offset="0%" stop-color="#31312f"/>
            <stop offset="100%" stop-color="#0a0a0a"/>
        </radialGradient>
    </defs>
    <path fill="url(#a)" d="m197 15 200 22 67 76 48 120 48-120 67-76 200-22 177 130 17 324-509 538L3 469l17-324z" class="zone-frame"/>
    <path fill="#fff" d="M203 42 44 158 25 459l486 514-84-142L74 437l14-253 126-93 168 12 57 53 50 75-37-97-62-70zm618 0-187 22-62 70-37 97 50-75 57-53 168-12 126 93 14 253-353 394-84 142 486-514-19-301-159-116z" class="zone-ring-outer"/>
    <path fill="#fff" d="m221 128-99 76-11 217 315 406-203-337 47 22-70-65-31-49 1-51 33 33-33-69 4-77 58-53 134-2 49 18 88 83-11-38-63-69-54-36zm582 0-154 9-54 36-63 69-11 38 88-83 49-18 134 2 58 53 4 77-33 69 33-33 1 51-31 49-70 65 47-22-203 337 315-406-11-217-99-76zM377 680l115 218-59-170zm270 0-56 48-59 170z" class="zone-ring-inner"/>
    <path fill="#fff" d="M580 591c11 0 20-9 20-20V352c0-11-9-20-20-20H444c-11 0-20 9-20 20v219c0 11 9 20 20 20z" class="zone-center-card"/>
    <path fill="#ccc" d="M427 604c-12-6-20-19-21-34V352c0-3 0-6 1-8l-97 20c-11 2-18 13-16 25l45 213c2 11 13 18 24 16zm170 0 64 14c11 2 22-5 24-16l45-213c2-12-5-23-16-25l-97-20c1 2 1 5 1 8V570c-1 15-9 28-21 34z" class="zone-outer-cards"/>
</svg>