<svg xmlns="http://www.w3.org/2000/svg" viewBox="0 0 1024 1024">
    <path class="zone-frame" fill="currentColor" d="M197.04,15.53c11.51,0.84 22.99,2.01 34.43,3.52c30.62,3.66 163.05,18.31 165.39,18.31c5.71,5.57 37.94,45.41 47.61,57.13c11.75,13.35 21.79,28.11 29.88,43.95c31.06,57.43 36.04,66.07 38.24,65.63c2.05,-0.44 21.83,-35.16 40.58,-71.2c5.86,-11.57 12.89,-22.41 19.34,-30.03c5.42,-6.59 54.2,-65.48 55.23,-65.48c49.95,-5.27 196.01,-21.97 198.5,-21.97c3.08,0 150.45,108.11 150.45,108.11c23.29,17.14 26.81,20.22 27.39,24.17c0.44,2.64 1.46,19.78 2.34,38.38c1.61,32.23 2.78,55.52 10.99,199.97c2.05,35.01 3.66,67.97 3.66,72.95v9.38l-13.48,14.36c0,0 -480.36,508.78 -487.54,516.1l-8.2,8.64l-11.72,-12.16l-497.5,-526.5l18.02,-325.66c0,0 124.37,-91.41 152.94,-112.8zM183.85,51.57c-42.78,30.76 -140.2,103.13 -140.2,103.13c-1.17,0.73 -17.43,306.76 -17.43,306.76l484.61,511.56c0,0 -79.4,-137.56 -87.9,-146.2c-4.1,-4.39 -349.83,-402.71 -349.83,-402.71c0,0 14.8,-237.76 14.8,-240.25c0,-4.1 116.02,-91.12 116.02,-91.12l180.63,13.92l40.73,34.57c10.4,8.64 12.89,11.87 32.38,42.48c11.57,18.17 22.85,36.18 25.05,39.99c5.71,9.96 7.18,10.11 2.64,0.15c-2.05,-4.69 -10.84,-27.54 -19.63,-50.69l-15.97,-42.19l-26.52,-30.32l-31.35,-35.6c-4.54,-4.98 -5.27,-5.27 -19.92,-6.89l-165.39,-18.6zM817.44,39.55l-165.39,18.6c-14.65,1.61 -15.38,1.9 -19.92,6.89l-31.35,35.6l-26.52,30.32l-15.97,42.19c-8.79,23.15 -17.58,46 -19.63,50.69c-4.54,9.96 -3.08,9.82 2.64,-0.15c2.2,-3.81 13.48,-21.83 25.05,-39.99c19.48,-30.62 21.97,-33.84 32.38,-42.48l40.73,-34.57l180.63,-13.92c0,0 116.02,87.02 116.02,91.12c0,2.49 14.8,240.25 14.8,240.25c0,0 -345.73,398.32 -349.83,402.71c-8.5,8.64 -87.9,146.2 -87.9,146.2l484.61,-511.56c0,0 -16.26,-306.03 -17.43,-306.76c0,0 -97.42,-72.37 -140.2,-103.13zM219.74,128.92c-2.64,-0.88 -97.57,72.37 -97.57,72.37l-13.48,213.3c0,0 316.58,412.38 317.02,412.38c0.44,0 -203.04,-336.06 -203.04,-337.23c0,-1.46 47.61,22.56 47.61,22.56c0,0 -65.34,-62.26 -70.46,-65.19c-6.3,-7.62 -32.23,-47.17 -32.23,-47.17l1.17,-24.9l1.46,-27.69c0.29,-1.9 37.21,40.87 32.81,31.94c-7.32,-16.11 -32.67,-68.71 -32.67,-68.71l2.49,-76.18l64.6,-54.5l130.97,-1.61l41.6,21.68c20.36,10.25 21.39,11.13 65.19,53.91c15.24,14.94 27.83,27.83 27.39,26.08l-10.84,-38.09l-53.18,-59.04c-2.34,-2.49 -65.78,-46.88 -65.78,-46.88zM651.17,135.95c0,0 -63.43,44.39 -65.78,46.88l-53.18,59.04l-10.84,38.09c-0.44,1.76 12.16,-11.13 27.39,-26.08c43.8,-42.78 44.83,-43.66 65.19,-53.91l41.6,-21.68l130.97,1.61l64.6,54.5l2.49,76.18c0,0 -25.34,52.59 -32.67,68.71c-4.39,8.94 32.52,-33.84 32.81,-31.94l1.46,27.69l1.17,24.9c0,0 -25.93,39.55 -32.23,47.17c-5.13,2.93 -70.46,65.19 -70.46,65.19c0,0 47.61,-24.03 47.61,-22.56c0,1.17 -203.48,337.23 -203.04,337.23c0.44,0 317.02,-412.38 317.02,-412.38l-13.48,-213.3c0,0 -94.93,-73.25 -97.57,-72.37zM390.41,704.64l90.53,172.13c13.18,26.08 14.36,27.25 6.59,6.89c-2.93,-7.47 -52.3,-153.82 -54.35,-155.72l-50.83,-47.46zM641.65,680.47l-50.83,47.46c-2.05,1.9 -51.42,148.25 -54.35,155.72c-7.76,20.36 -6.59,19.19 6.59,-6.89l90.53,-172.13zM426.51,604.21c-12.14,-6.37 -20.43,-19.09 -20.43,-33.76v-217.98c0,-3.08 0.36,-6.07 1.05,-8.93l-97.55,20.73c-11.08,2.36 -18.15,13.25 -15.8,24.33l45.32,213.22c2.36,11.08 13.25,18.15 24.33,15.8zM660.56,617.61c11.08,2.36 21.97,-4.72 24.33,-15.8l45.32,-213.22c2.36,-11.08 -4.72,-21.97 -15.8,-24.33l-97.55,-20.73c0.69,2.86 1.05,5.85 1.05,8.93v217.98c0,14.66 -8.29,27.39 -20.43,33.76zM579.83,590.96c11.33,0 20.51,-9.18 20.51,-20.51v-217.98c0,-11.33 -9.18,-20.51 -20.51,-20.51h-135.65c-11.33,0 -20.51,9.18 -20.51,20.51v217.98c0,11.33 9.18,20.51 20.51,20.51z"/>
</svg>
