<svg xmlns="http://www.w3.org/2000/svg" viewBox="0 0 1024 1024">
    <defs>
        <radialGradient id="a" cx=".5" cy=".5" r=".6">
            <stop offset="0%" stop-color="#323076"/>
            <stop offset="100%" stop-color="#101242"/>
        </radialGradient>
        <radialGradient id="b" cx=".5" cy=".5" r=".6">
            <stop offset="0%" stop-color="#e5d5bb"/>
            <stop offset="100%" stop-color="#bf9a4e"/>
        </radialGradient>
    </defs>
    <path fill="url(#a)" d="m197 15 200 22 67 76 48 120 48-120 67-76 200-22 177 130 17 324-509 538L3 469l17-324z" class="zone-frame"/>
    <path fill="#78e4db" d="M203 42 44 158 25 459l486 514-84-142L74 437l14-253 126-93 168 12 57 53 50 75-37-97-62-70zm618 0 159 116 19 301-486 514 84-142 353-394-14-253-126-93-168 12-57 53-50 75 37-97 62-70z" class="zone-ring-outer"/>
    <path fill="url(#b)" d="m221 128-99 76-11 217 315 406-203-337 47 22-70-65-31-49 1-51 33 33-33-69 4-77 58-53 134-2 49 18 88 83-11-38-63-69-54-36zm582 0 99 76 11 217-315 406 203-337-47 22 70-65 31-49-1-51-33 33 33-69-4-77-58-53-134-2-49 18-88 83 11-38 63-69 54-36zM377 680l115 218-59-170zm270 0L532 898l59-170z" class="zone-ring-inner"/>
    <path fill="#fff" d="M580 591c11 0 20-9 20-20V352c0-11-9-20-20-20H444c-11 0-20 9-20 20v219c0 11 9 20 20 20z" class="zone-center-card"/>
    <path fill="#ccc" d="M427 604c-12-6-20-19-21-34V352c0-3 0-6 1-8l-97 20c-11 2-18 13-16 25l45 213c2 11 13 18 24 16zm170 0c12-6 20-19 21-34V352c0-3 0-6-1-8l97 20c11 2 18 13 16 25l-45 213c-2 11-13 18-24 16z" class="zone-outer-cards"/>
</svg>
