<svg xmlns="http://www.w3.org/2000/svg" viewBox="0 0 1024 1024"><path fill="currentColor" d="m197 15 200 22 67 76 48 120 48-120 67-76 200-22 177 130 17 324-509 538L3 469l17-324zm6 27L44 158 25 459l486 514-84-142L74 437l14-253 126-93 168 12 57 53 50 75-37-97-62-70zm618 0L634 64l-62 70-37 97 50-75 57-53 168-12 126 93 14 253-353 394-84 142 486-514-19-301zm-600 86-99 76-11 217 315 406-203-337 47 22-70-65-31-49 1-51 33 33-33-69 4-77 58-53 134-2 49 18 88 83-11-38-63-69-54-36zm582 0-154 9-54 36-63 69-11 38 88-83 49-18 134 2 58 53 4 77-33 69 33-33 1 51-31 49-70 65 47-22-203 337 315-406-11-217zM377 680l115 218-59-170zm270 0-56 48-59 170zm-67-89c11 0 20-9 20-20V352c0-11-9-20-20-20H444c-11 0-20 9-20 20v219c0 11 9 20 20 20zm-153 13c-12-6-20-19-21-34V352c0-3 0-6 1-8l-97 20c-11 2-18 13-16 25l45 213c2 11 13 18 24 16zm170 0 64 14c11 2 22-5 24-16l45-213c2-12-5-23-16-25l-97-20c1 2 1 5 1 8v218c-1 15-9 28-21 34"/></svg>