<svg xmlns="http://www.w3.org/2000/svg" viewBox="0 0 699 680" fill-rule="nonzero"><path class="zone-frame" fill="currentColor" d="M134.5,1.1l136.4,14.9l45.527,55.395l33.073,58.346c0,0 6.179,-8.645 25.7,-44.741c5.526,-10.809 12.379,-20.887 20.4,-30c6.6,-8 28.6,-35.2 32.5,-39c1.6,0 92,-10 112.9,-12.5c7.808,-1.029 15.645,-1.829 23.5,-2.4l16,10.1c19.5,14.6 104.4,77 104.4,77l12.3,222.3l-339.6,359.4l-8.1,8.408l-347.7,-367.808l12.3,-222.3zM303.2,217.1c-7.732,0 -14,6.268 -14,14v148.8c0,7.732 6.268,14 14,14h92.6c7.732,0 14,-6.268 14,-14v-148.8c0,-7.732 -6.268,-14 -14,-14zM141,17.5l-111.2,78.6l-11.9,209.4l330.8,349.2l-56.864,-96.664l-241.936,-278.036l10.1,-164l79.2,-62.2l123.3,9.5l35.421,30.069l35.041,54.85l-25.962,-68.319l-42.862,-48.691zM434.862,31.209l-42.862,48.691l-25.962,68.319l35.041,-54.85l35.421,-30.069l123.3,-9.5l79.2,62.2l10.1,164l-241.936,278.036l-56.864,96.664l330.8,-349.2l-11.9,-209.4l-111.2,-78.6zM150,78.5l-66.6,49.4l-9.2,145.6l216.4,281.5l-138.6,-230.2l32.5,15.4l-48.1,-44.5l-22,-32.2l1.8,-35.9l22.4,21.8l-22.3,-46.9l1.7,-52l44.1,-37.2l89.4,-1.1l41.381,21.377c0,0 50.519,49.223 50.219,48.023l-7.4,-26l-36.3,-40.3l-44.9,-32zM444.5,83.3l-44.9,32l-36.3,40.3l-7.4,26c-0.3,1.2 50.219,-48.023 50.219,-48.023l41.381,-21.377l89.4,1.1l44.1,37.2l1.7,52l-22.3,46.9l22.4,-21.8l1.8,35.9l-22,32.2l-48.1,44.5l32.5,-15.4l-138.6,230.2l216.4,-281.5l-9.2,-145.6l-66.6,-49.4zM256.431,455l77.794,151.858l-38.525,-119.458zM403.3,487.4l-38.525,119.458l77.794,-151.858zM291.146,402.943c-8.29,-4.346 -13.946,-13.034 -13.946,-23.043v-148.8c0,-2.099 0.249,-4.14 0.718,-6.095l-66.586,14.153c-7.563,1.608 -12.391,9.042 -10.783,16.605l30.937,145.548c1.608,7.563 9.042,12.391 16.605,10.784zM450.909,412.095c7.563,1.607 14.997,-3.221 16.605,-10.784l30.937,-145.548c1.608,-7.563 -3.22,-14.997 -10.783,-16.605l-66.586,-14.153c0.469,1.955 0.718,3.996 0.718,6.095v148.8c0,10.009 -5.656,18.697 -13.946,23.043z"/><path class="zone-card-side" fill="none" d="M248.091,412.095c-7.563,1.607 -14.997,-3.221 -16.605,-10.784l-30.937,-145.548c-1.608,-7.563 3.22,-14.997 10.783,-16.605l66.586,-14.153c-0.469,1.955 -0.718,3.996 -0.718,6.095v148.8c0,10.009 5.656,18.697 13.946,23.043zM407.854,402.943c8.29,-4.346 13.946,-13.034 13.946,-23.043v-148.8c0,-2.099 -0.249,-4.14 -0.718,-6.095l66.586,14.153c7.563,1.608 12.391,9.042 10.783,16.605l-30.937,145.548c-1.608,7.563 -9.042,12.391 -16.605,10.784z"/><path class="zone-card-center" fill="none" d="M303.2,393.9c-7.732,0 -14,-6.268 -14,-14v-148.8c0,-7.732 6.268,-14 14,-14h92.6c7.732,0 14,6.268 14,14v148.8c0,7.732 -6.268,14 -14,14z"/><path class="zone-rays" fill="none" d="M261,455l34.7,32.4c1.4,1.3 35.1,101.2 37.1,106.3c5.3,13.9 4.5,13.1 -4.5,-4.7l-61.8,-117.5zM432.5,471.5l-61.8,117.5c-9,17.8 -9.8,18.6 -4.5,4.7c2,-5.1 35.7,-105 37.1,-106.3l34.7,-32.4z"/></svg>
