<svg xmlns="http://www.w3.org/2000/svg" viewBox="0 0 1024 1024">
    <path fill="currentColor" d="M197,15l200,22l67,76l48,120l48,-120l67,-76l200,-22l177,130l17,324l-509,538l-509,-538l17,-324l177,-130Z
    M203,42l-159,116l-19,301l486,514l-84,-142l-353,-394l14,-253l126,-93l168,12l57,53l50,75l-37,-97l-62,-70l-187,-22ZM821,42l-187,22l-62,70l-37,97l50,-75l57,-53l168,-12l126,93l14,253l-353,394l-84,142l486,-514l-19,-301l-159,-116Z
    M221,128l-99,76l-11,217l315,406l-203,-337l47,22l-70,-65l-31,-49l1,-51l33,33l-33,-69l4,-77l58,-53l134,-2l49,18l88,83l-11,-38l-63,-69l-54,-36l-154,-9ZM803,128l-154,9l-54,36l-63,69l-11,38l88,-83l49,-18l134,2l58,53l4,77l-33,69l33,-33l1,51l-31,49l-70,65l47,-22l-203,337l315,-406l-11,-217l-99,-76ZM377,680l115,218l-59,-170l-56,-48ZM647,680l-56,48l-59,170l115,-218Z
    M580,591c11,0 20,-9 20,-20v-219c0,-11 -9,-20 -20,-20h-136c-11,0 -20,9 -20,20v219c0,11 9,20 20,20z
    M427,604c-12,-6 -20,-19 -21,-34v-218c0,-3 0,-6 1,-8l-97,20c-11,2 -18,13 -16,25l45,213c2,11 13,18 24,16zM597,604l64,14c11,2 22,-5 24,-16l45,-213c2,-12 -5,-23 -16,-25l-97,-20c1,2 1,5 1,8v218c-1,15 -9,28 -21,34z"/>
</svg>
