<svg xmlns="http://www.w3.org/2000/svg" viewBox="0 0 699 680" fill-rule="nonzero"><path class="zone-frame" fill="currentColor" d="M134.5,1.1c7.85505,0.57077 15.69173,1.37111 23.5,2.4c20.9,2.5 111.3,12.5 112.9,12.5c3.9,3.8 25.9,31 32.5,39c8.02081,9.11297 14.87371,19.19075 20.4,30c19.52116,36.09572 23.94988,43.95672 25.7,44.74117c1.75012,-0.78445 6.17884,-8.64544 25.7,-44.74117c5.52629,-10.80925 12.37919,-20.88703 20.4,-30c6.6,-8 28.6,-35.2 32.5,-39c1.6,0 92,-10 112.9,-12.5c7.80827,-1.02889 15.64495,-1.82923 23.5,-2.4l16,10.1c19.5,14.6 104.4,77 104.4,77l12.3,222.3l-339.6,359.4l-8,8.3l-0.1,-0.10536l-0.1,0.10536l-8,-8.3l-339.6,-359.4l12.3,-222.3c0,0 84.9,-62.4 104.4,-77zM125.5,25.7c-29.2,21 -95.7,70.4 -95.7,70.4c-0.8,0.5 -11.9,209.4 -11.9,209.4l330.8,349.2c0,0 -54.2,-93.9 -60,-99.8c-2.8,-3 -238.8,-274.9 -238.8,-274.9c0,0 10.1,-162.3 10.1,-164c0,-2.8 79.2,-62.2 79.2,-62.2l123.3,9.5l27.8,23.6c7.1,5.9 8.8,8.1 22.1,29c7.9,12.4 15.6,24.7 17.1,27.3c3.9,6.8 4.9,6.9 1.8,0.1c-1.4,-3.2 -7.4,-18.8 -13.4,-34.6l-10.9,-28.8l-18.1,-20.7l-21.4,-24.3c-3.1,-3.4 -3.6,-3.6 -13.6,-4.7l-112.9,-12.7zM558,17.5l-112.9,12.7c-10,1.1 -10.5,1.3 -13.6,4.7l-21.4,24.3l-18.1,20.7l-10.9,28.8c-6,15.8 -12,31.4 -13.4,34.6c-3.1,6.8 -2.1,6.7 1.8,-0.1c1.5,-2.6 9.2,-14.9 17.1,-27.3c13.3,-20.9 15,-23.1 22.1,-29l27.8,-23.6l123.3,-9.5c0,0 79.2,59.4 79.2,62.2c0,1.7 10.1,164 10.1,164c0,0 -236,271.9 -238.8,274.9c-5.8,5.9 -60,99.8 -60,99.8l330.8,-349.2c0,0 -11.1,-208.9 -11.9,-209.4c0,0 -66.5,-49.4 -95.7,-70.4z"/><path class="zone-frame-inner" fill="currentColor" d="M254.5,83.3c0,0 43.3,30.3 44.9,32l36.3,40.3l7.4,26c0.3,1.2 -8.3,-7.6 -18.7,-17.8c-29.9,-29.2 -30.6,-29.8 -44.5,-36.8l-28.4,-14.8l-89.4,1.1l-44.1,37.2l-1.7,52c0,0 17.3,35.9 22.3,46.9c3,6.1 -22.2,-23.1 -22.4,-21.8l-1,18.9l-0.8,17c0,0 17.7,27 22,32.2c3.5,2 48.1,44.5 48.1,44.5c0,0 -32.5,-16.4 -32.5,-15.4c0,0.8 138.9,230.2 138.6,230.2c-0.3,0 -216.4,-281.5 -216.4,-281.5l9.2,-145.6c0,0 64.8,-50 66.6,-49.4zM549,78.5c1.8,-0.6 66.6,49.4 66.6,49.4l9.2,145.6c0,0 -216.1,281.5 -216.4,281.5c-0.3,0 138.6,-229.4 138.6,-230.2c0,-1 -32.5,15.4 -32.5,15.4c0,0 44.6,-42.5 48.1,-44.5c4.3,-5.2 22,-32.2 22,-32.2l-0.8,-17l-1,-18.9c-0.2,-1.3 -25.4,27.9 -22.4,21.8c5,-11 22.3,-46.9 22.3,-46.9l-1.7,-52l-44.1,-37.2l-89.4,-1.1l-28.4,14.8c-13.9,7 -14.6,7.6 -44.5,36.8c-10.4,10.2 -19,19 -18.7,17.8l7.4,-26l36.3,-40.3c1.6,-1.7 44.9,-32 44.9,-32z"/><path class="zone-card-side" fill="#fff" d="M248.09116,412.09456c-7.56302,1.60757 -14.99726,-3.22028 -16.60483,-10.7833l-30.93726,-145.54836c-1.60757,-7.56302 3.22028,-14.99726 10.7833,-16.60483l66.58604,-14.1533c-0.46965,1.95506 -0.71841,3.9961 -0.71841,6.09524v148.8c0,10.0092 5.65589,18.6974 13.94605,23.04296zM407.85395,402.94296c8.29016,-4.34556 13.94605,-13.03376 13.94605,-23.04296v-148.8c0,-2.09914 -0.24876,-4.14017 -0.71841,-6.09524l66.58604,14.1533c7.56302,1.60757 12.39087,9.04181 10.7833,16.60483l-30.93726,145.54836c-1.60757,7.56302 -9.04181,12.39087 -16.60483,10.7833z"/><path class="zone-card-center" fill="#fff" d="M303.2,393.9c-7.73199,0 -14,-6.26801 -14,-14v-148.8c0,-7.73199 6.26801,-14 14,-14h92.6c7.73199,0 14,6.26801 14,14v148.8c0,7.73199 -6.26801,14 -14,14z"/><path class="zone-rays" fill="currentColor" d="M261,455l34.7,32.4c1.4,1.3 35.1,101.2 37.1,106.3c5.3,13.9 4.5,13.1 -4.5,-4.7l-61.8,-117.5zM432.5,471.5l-61.8,117.5c-9,17.8 -9.8,18.6 -4.5,4.7c2,-5.1 35.7,-105 37.1,-106.3l34.7,-32.4z"/></svg>
