<svg xmlns="http://www.w3.org/2000/svg" viewBox="0 0 1024 1024">
    <defs>
      <radialGradient id="frameGrad" cx="0.5" cy="0.5" r="0.6">
        <stop offset="0%"  stop-color="#323076"/>
        <stop offset="100%" stop-color="#101242"/>
      </radialGradient>
      <radialGradient id="ringGrad" cx="0.5" cy="0.5" r="0.6">
        <stop offset="0%"  stop-color="#e5d5bb"/>
        <stop offset="100%" stop-color="#bf9a4e"/>
      </radialGradient>
    </defs>
    <path class="zone-frame" fill="url(#frameGrad)" d="M197,15l200,22l67,76l48,120l48,-120l67,-76l200,-22l177,130l17,324l-509,538l-509,-538l17,-324l177,-130Z"/>
    <path class="zone-ring-outer" fill="#78e4db" d="M203,42l-159,116l-19,301l486,514l-84,-142l-353,-394l14,-253l126,-93l168,12l57,53l50,75l-37,-97l-62,-70l-187,-22ZM821,42l159,116l19,301l-486,514l84,-142l353,-394l-14,-253l-126,-93l-168,12l-57,53l-50,75l37,-97l62,-70l187,-22Z"/>
    <path class="zone-ring-inner" fill="url(#ringGrad)" d="M221,128l-99,76l-11,217l315,406l-203,-337l47,22l-70,-65l-31,-49l1,-51l33,33l-33,-69l4,-77l58,-53l134,-2l49,18l88,83l-11,-38l-63,-69l-54,-36l-154,-9ZM803,128l99,76l11,217l-315,406l203,-337l-47,22l70,-65l31,-49l-1,-51l-33,33l33,-69l-4,-77l-58,-53l-134,-2l-49,18l-88,83l11,-38l63,-69l54,-36l154,-9ZM377,680l115,218l-59,-170l-56,-48ZM647,680l-115,218l59,-170l56,-48Z"/>
    <path class="zone-center-card" fill="#ffffff" d="M580,591c11,0 20,-9 20,-20v-219c0,-11 -9,-20 -20,-20h-136c-11,0 -20,9 -20,20v219c0,11 9,20 20,20z"/>
    <path class="zone-outer-cards" fill="#cccccc" d="M427,604c-12,-6 -20,-19 -21,-34v-218c0,-3 0,-6 1,-8l-97,20c-11,2 -18,13 -16,25l45,213c2,11 13,18 24,16zM597,604c12,-6 20,-19 21,-34v-218c0,-3 0,-6 -1,-8l97,20c11,2 18,13 16,25l-45,213c-2,11 -13,18 -24,16z"/>
</svg>
